<?xml version="1.0" encoding="UTF-8"?>
<svg id="Layer_2" data-name="Layer 2" xmlns="http://www.w3.org/2000/svg" viewBox="0 0 1001 1001">
  <defs>
    <style>
      .cls-1 {
        fill: #000000;
        stroke: #1d1d1b;
        stroke-miterlimit: 10;
      }
    </style>
  </defs>
  <g id="Camada_1" data-name="Camada 1">
    <g>
      <path class="cls-1" d="m992.03,720.11c-5.6,4.07-11.16,8.18-16.69,12.35-2.76,2.08-5.52,4.18-8.26,6.28-46.66,35.81-90.65,75.07-131.6,117.49-9.42-36.56,1.18-75.38,27.88-102.08,41.48-42.43,87.48-80.13,137.14-112.44v-33.52c-66.29,39.27-127.18,87.04-181.06,142.16-42.27,42.27-50.87,107.65-20.99,159.41,5.77,9.99,12.83,19.19,20.99,27.35,28.87-29.91,61.78-55.63,97.78-76.41,26.43-15.26,54.34-27.73,83.28-37.27v-109.42c-2.83,2.02-5.66,4.06-8.47,6.1Z"/>
      <polygon class="cls-1" points="840.37 1000.5 1000.5 1000.5 1000.5 840.37 840.37 1000.5"/>
      <path class="cls-1" d="m666.84,936.4c-13.09,22.67-28.15,44.11-44.99,64.1h33.41c11.06-36.84,11.58-64.1,11.58-64.1Z"/>
      <path class="cls-1" d="m741.86,936.4s.52,27.26,11.58,64.1h33.41c-16.83-19.98-31.9-41.43-44.99-64.1Z"/>
      <path class="cls-1" d="m384.03,816.2c37.6,10.08,73.73,25.04,107.45,44.51,36,20.78,68.91,46.5,97.78,76.41,8.16-8.16,15.22-17.36,20.99-27.35,29.89-51.77,21.28-117.15-20.99-159.41-56.17-57.46-119.93-106.96-189.52-147.14,11.33-42.28-7.15-86.9-45.06-108.79l-110.6-63.85c-42.13-24.32-56.56-78.19-32.24-120.31,7.73-13.39,18.85-24.51,32.24-32.24-11.33,42.28,7.15,86.9,45.06,108.79l131.53,75.94c34.52,19.93,51.35,60.57,41.04,99.07,89.09,51.44,170.72,114.81,242.64,188.38,71.91-73.56,153.55-136.94,242.64-188.38-10.32-38.51,6.51-79.14,41.04-99.07l12.48-7.2v-29.08l-33.79,19.51c-37.91,21.89-56.39,66.51-45.06,108.79-13.39-7.73-24.51-18.85-32.24-32.24-24.32-42.13-9.89-95.99,32.24-120.31l78.85-45.52V.5H.5v1000h567.83l-184.3-184.3Zm213.84-319.95c-24-139.93,179.96-104.68,216.92-168.69,0,0,7.29,85.76-59.72,123.7,0,0-19.46,100.53,102.53,117.16-56.3,32.53-107.86,72.59-153.25,119.03,0,0,0,0,0,0-45.48-46.53-97.11-86.61-153.46-119.14,0,0,57.63-10.28,87.89-40.54,45.24-45.24-17.4-84.02-40.91-31.51Zm-331.44-204.86c.37-14.2,4.18-28.51,11.78-41.67,7.73-13.39,18.85-24.51,32.24-32.24-11.33,42.28,7.15,86.9,45.06,108.79l131.53,75.94c42.13,24.32,56.56,78.19,32.24,120.31-7.73,13.39-18.85,24.51-32.24,32.24,11.33-42.28-7.15-86.9-45.06-108.79l-131.53-75.94c-25.67-14.82-41.06-40.61-43.66-68.03-.2-2.11-.32-4.23-.37-6.35-.02-.71-.02-1.42-.02-2.13,0-.71.01-1.42.03-2.13Zm90.17,387.8c-14.6-9.31-29.42-18.3-44.44-26.97,1.06-3.96,1.86-7.95,2.41-11.93,5.28-38.52-13.12-77.02-47.47-96.85l-33.12-19.12c-2.52-1.46-4.96-3.01-7.32-4.64-3.54-2.46-6.88-5.11-10.04-7.94-2.1-1.89-4.11-3.85-6.04-5.89-24.04-25.47-33.98-62.14-24.57-97.3,3.72,13.87,12.79,25.7,25.23,32.88l121.85,70.35c37.36,21.57,53.6,67.03,38.36,107.39,63.85,36.86,122.35,82.28,173.88,135,26.7,26.7,37.3,65.52,27.88,102.08-40.95-42.42-84.94-81.68-131.6-117.49-2.74-2.11-5.5-4.2-8.26-6.28-5.53-4.16-11.09-8.28-16.69-12.35-8.4-6.1-16.88-12.1-25.43-17.98-11.41-7.84-22.96-15.49-34.64-22.93Z"/>
    </g>
  </g>
</svg>